<svg xmlns="http://www.w3.org/2000/svg" xmlns:xlink="http://www.w3.org/1999/xlink" viewBox="0 0 542.95 527.28"><defs><style>.cls-1{fill:#1d1d1b;}.cls-2,.cls-3,.cls-4{fill:none;}.cls-3,.cls-4,.cls-5{stroke:#1d1d1b;stroke-miterlimit:10;}.cls-3{stroke-width:2px;}.cls-5{fill:url(#Nowa_próbka_gradientu_1);}.cls-6{fill:#fff;}</style><linearGradient id="Nowa_próbka_gradientu_1" x1="62.57" y1="263.64" x2="496.05" y2="263.64" gradientUnits="userSpaceOnUse"><stop offset="0" stop-color="#2581c4"/><stop offset="1" stop-color="#111126"/></linearGradient></defs><title>Prosty_Katomierz_gradient_duże_pi_logo</title><g id="linijka"><path d="M636,167.12l1.13,1.88c-1.34.72-2.59,1.37-3.82,2.06q-4.54,2.5-9.07,5.05c-2.32,1.28-4.62,2.6-7,3.82-.37.19-1-.06-1.46-.11.26-.45.41-1.08.79-1.3,3.12-1.8,6.33-3.46,9.44-5.28s6.22-3.82,9.32-5.73Z" transform="translate(-135.11 -31.52)"/><path d="M612.14,133.33c-2.55,2-5.17,3.87-7.67,5.93s-4.81,4.24-7.23,6.34a32.34,32.34,0,0,1-2.76,2.19c-.28.19-.77.07-1.17.1a6.18,6.18,0,0,1,.19-1.29c.06-.21.37-.34.57-.51l8.89-7.47c2.32-2,4.63-3.94,7-5.9C611.09,131.74,611.41,131.83,612.14,133.33Z" transform="translate(-135.11 -31.52)"/><path d="M216.51,179.05c-.56.23-.89.49-1.17.44a3.32,3.32,0,0,1-1.16-.54c-4.19-2.57-8.37-5.12-12.54-7.72-2.61-1.63-5.2-3.31-7.77-5-.27-.18-.34-.67-.5-1,.42,0,.93-.15,1.24,0Q205,171.6,215.36,178A9.48,9.48,0,0,1,216.51,179.05Z" transform="translate(-135.11 -31.52)"/><path d="M565.5,119.9a5.42,5.42,0,0,1,.55-1.26c1.77-2.1,3.59-4.14,5.35-6.23a57.62,57.62,0,0,1,3.88-4.72c1.59-1.5,2.7-3.35,4.15-4.93.41-.45.73-1,1.2-1.6l1.42,1.16c-.19.27-.31.48-.47.67-1.15,1.39-2.29,2.8-3.49,4.15-1,1.13-2.14,2.15-3.14,3.29-2.36,2.72-4.64,5.51-7,8.22C567.39,119.27,566.94,120.27,565.5,119.9Z" transform="translate(-135.11 -31.52)"/><path d="M372.66,43.31c1.18-.49,1.51.1,1.65,1,.71,4.58,1.41,9.17,2.18,13.75.41,2.48,1,4.93,1.46,7.4a18.82,18.82,0,0,1,.42,2.55c0,.34-.32.7-.5,1-.26-.29-.69-.55-.75-.88-.57-3.38-1.05-6.77-1.63-10.14-.52-3-1.13-6-1.71-9.08C373.42,47.12,373,45.25,372.66,43.31Z" transform="translate(-135.11 -31.52)"/><path d="M565.07,89l-2.91,5c-.06.11-.13.27-.23.29-2.25.59-2.56,2.92-3.85,4.36s-2.37,3.31-3.61,4.93c-.22.29-.76.34-1.16.51,0-.43-.13-1,.08-1.28,1.74-2.55,3.6-5,5.32-7.58a59.74,59.74,0,0,0,3.39-5.64C563.11,87.58,563.4,87.46,565.07,89Z" transform="translate(-135.11 -31.52)"/><path d="M655,207.49c.2.43.39.86.62,1.37l-22.37,8c-.43-.83-.41-1.31.52-1.64q7.29-2.58,14.55-5.23C650.53,209.19,652.71,208.35,655,207.49Z" transform="translate(-135.11 -31.52)"/><path d="M642.82,254.54l23.9-4.33c0,.27.13.76.21,1.23-2.21,1.07-22.83,4.1-24,3.56Z" transform="translate(-135.11 -31.52)"/><path d="M330.08,54.12c.47,1,1,1.92,1.4,2.93q2.16,5.64,4.22,11.31c1.21,3.29,2.37,6.61,3.51,9.93.09.28-.14.68-.23,1-.31-.25-.78-.43-.91-.75-1.24-3.24-2.43-6.5-3.61-9.76q-1.63-4.47-3.23-9-.86-2.37-1.67-4.76a2.75,2.75,0,0,1,0-.76Z" transform="translate(-135.11 -31.52)"/><path d="M289.22,72.65c.41.32,1,.56,1.21,1,1.15,1.95,2.21,3.94,3.32,5.91q3.69,6.52,7.38,13c.48.85.9,1.75,1.34,2.62l-.31.37c-.36-.21-.86-.34-1.05-.66-1.92-3.31-3.8-6.65-5.69-10s-3.87-6.81-5.8-10.23c-.3-.52-.52-1.07-.78-1.61Z" transform="translate(-135.11 -31.52)"/><path d="M497.17,80.2a10.38,10.38,0,0,1,.28-2c2.6-7,5.24-13.91,7.87-20.86.06-.16.16-.3.29-.55l1.19.42C506.06,60.52,498.37,79.44,497.17,80.2Z" transform="translate(-135.11 -31.52)"/><path d="M624.69,149.62l1.18,1.54c-.38.28-.74.57-1.13.83-4.18,2.78-8.36,5.57-12.57,8.32-.58.38-1.17,1.27-2,.52a4,4,0,0,1,1.15-1.67C615.72,156,620.15,152.85,624.69,149.62Z" transform="translate(-135.11 -31.52)"/><path d="M199.12,215a7.79,7.79,0,0,1-1.75-.13q-6.62-2.45-13.2-5-4.39-1.66-8.75-3.38a7.43,7.43,0,0,1-1.25-.81C175.5,205.3,198.05,213.57,199.12,215Z" transform="translate(-135.11 -31.52)"/><path d="M596.48,115.93c1.4,1,1.37,1,.11,2.18-3.6,3.39-7.16,6.81-10.74,10.21a3.55,3.55,0,0,1-.67.62,7.26,7.26,0,0,1-1.14.38c.07-.42,0-1,.25-1.24q3.5-3.69,7.1-7.3C593,119.13,594.77,117.55,596.48,115.93Z" transform="translate(-135.11 -31.52)"/><path d="M418.39,65.56a8.39,8.39,0,0,1-.17-1.21c0-7.76,0-15.52,0-23.28,0-.4.39-.8.59-1.2.26.42.73.83.73,1.24,0,6.75-.12,13.49-.19,20.23,0,1,.06,2,0,3a5.15,5.15,0,0,1-.43,1.31Z" transform="translate(-135.11 -31.52)"/><path d="M268.73,118c-.61-.63-1.25-1.23-1.82-1.89-2.41-2.81-4.83-5.61-7.19-8.45s-4.8-5.85-7.18-8.79a2.6,2.6,0,0,1-.27-.88c.32.12.75.14.94.36,2.83,3.31,5.61,6.67,8.44,10,2.31,2.72,4.68,5.39,7,8.1a6.77,6.77,0,0,1,.64,1.19Z" transform="translate(-135.11 -31.52)"/><path d="M646.5,187l.58,1.57c-3,1.32-5.84,2.61-8.73,3.86s-5.46,3-8.73,3.75c.18-1.74,1.5-1.71,2.3-2.12,3.17-1.61,6.4-3.06,9.6-4.6C643.12,188.68,644.71,187.87,646.5,187Z" transform="translate(-135.11 -31.52)"/><path d="M459.06,69.29q2.16-12.21,4.33-24.42a1.59,1.59,0,0,1,.42-.09c.25,0,.5.09.73.13,0,.13.11.22.1.29-1.06,5.33-2.15,10.66-3.18,16-.43,2.21-.73,4.44-1.13,6.65a11.18,11.18,0,0,1-.56,1.66Z" transform="translate(-135.11 -31.52)"/><path d="M239.91,146.5a5.2,5.2,0,0,1-1.32-.56c-5-4.16-10-8.36-15-12.54-1.14-1-2.31-1.85-3.43-2.81a7.7,7.7,0,0,1-.87-1.09l.19-.39a3.61,3.61,0,0,1,1.17.41c3,2.55,6,5.16,9,7.71,3.48,2.94,7,5.84,10.49,8.75Z" transform="translate(-135.11 -31.52)"/><path d="M643.88,234l18.08-5c.12.42.26.94.42,1.5-2,.53-3.93,1-5.86,1.55L645.8,234.7C645.08,234.88,644.36,235.14,643.88,234Z" transform="translate(-135.11 -31.52)"/><path d="M202.24,194.31c-1.56.66-18.09-7.52-19.31-9.25a5,5,0,0,1,1.18.18c4.74,2.27,9.47,4.57,14.21,6.85.75.36,1.57.55,2.29.95A12.32,12.32,0,0,1,202.24,194.31Z" transform="translate(-135.11 -31.52)"/><path d="M439.67,61.3c.64-5.87,1.25-11.41,1.83-17,.07-.64-.11-1.32,0-1.95.06-.35.49-.64.75-1,.19.35.57.72.53,1-.39,3.62-.88,7.23-1.29,10.85-.28,2.52-.47,5.06-.76,7.59,0,.33-.46.61-.7.91Z" transform="translate(-135.11 -31.52)"/><path d="M317.85,81.84c-.51-1-1.05-2-1.52-3-2.38-5.08-4.75-10.15-7.06-15.25-.18-.39,0-1,.07-1.46.37.29.9.5,1.08.87q4,8.67,7.87,17.38a4.36,4.36,0,0,1,.14,1.31Z" transform="translate(-135.11 -31.52)"/><path d="M166.75,227.81c1.29-.72,19.45,4.32,20.42,5.54a6.39,6.39,0,0,1-1.81.07c-4.23-1.18-8.44-2.43-12.65-3.65-1.41-.41-2.84-.79-4.24-1.23A16.12,16.12,0,0,1,166.75,227.81Z" transform="translate(-135.11 -31.52)"/><path d="M619.53,142.46l1.15,1.54c-1.7,1.31-3.32,2.59-5,3.82-1.36,1-2.75,2-4.13,2.93-.25.18-.49.45-.76.5a8.42,8.42,0,0,1-1.42,0c.15-.41.2-1,.49-1.2,2.18-1.76,4.42-3.46,6.63-5.19Z" transform="translate(-135.11 -31.52)"/><path d="M632,160.49,633,162.3l-5.82,3.53c-.92.55-1.86,1.1-2.78,1.66-.41.25-.76.68-1.2.78a13.86,13.86,0,0,1-2.15.18,5.9,5.9,0,0,1,1.13-1.52C625.38,164.79,628.59,162.71,632,160.49Z" transform="translate(-135.11 -31.52)"/><path d="M667.24,272.35a15.93,15.93,0,0,1,2-.11c.29,0,.56.34.84.52-.28.24-.53.65-.82.68-3.51.27-7,.48-10.52.73-2.25.17-4.49.43-6.74.56-.4,0-.83-.35-1.25-.54a4,4,0,0,1,1.24-.61c2.54-.26,5.09-.44,7.63-.66l7.66-.64Z" transform="translate(-135.11 -31.52)"/><path d="M517.43,83.22c.42-1,.81-2.08,1.27-3.08.85-1.84,1.76-3.64,2.62-5.46,1.31-2.79,2.59-5.6,3.94-8.38a1.26,1.26,0,0,1,1-.6c.81.1.58.7.34,1.19-1.49,3-3,6-4.51,9.08-1.09,2.21-2.16,4.44-3.27,6.65a5,5,0,0,1-.74.92Z" transform="translate(-135.11 -31.52)"/><path d="M634,163.91l1.08,1.83c-1.63.87-3.15,1.61-4.6,2.45-1.72,1-3.39,2.09-5.09,3.13a3.23,3.23,0,0,1-.91.49,13,13,0,0,1-1.65.14c.29-.52.44-1.25.87-1.54C627.07,168.24,630.46,166.16,634,163.91Z" transform="translate(-135.11 -31.52)"/><path d="M616.42,161.32c.28-.49.45-1.13.86-1.43,2-1.46,4.07-2.82,6.11-4.22.75-.51,1.52-1,2.25-1.56,1.55-1.18,1.54-1.19,2.51.71C624.31,157,621,160,616.86,161.7Z" transform="translate(-135.11 -31.52)"/><path d="M480.05,69.1l5.22-19,1.46.35c-2,6.36-4,12.64-5.91,18.93Z" transform="translate(-135.11 -31.52)"/><path d="M561.59,86.42c-1,1.36-2,2.66-2.9,4-1.45,2.08-2.83,4.2-4.32,6.26-.29.4-.94.55-1.42.82,0-.59-.09-1.29.18-1.74,1.06-1.79,2.26-3.49,3.39-5.24,1-1.56,2-3.15,3-4.69a1,1,0,0,1,.91-.21A5.52,5.52,0,0,1,561.59,86.42Z" transform="translate(-135.11 -31.52)"/><path d="M186.74,254.25c-1.28.67-24.44-3.51-25.29-4.63C170,250.74,178.33,252.58,186.74,254.25Z" transform="translate(-135.11 -31.52)"/><path d="M541,83.5a1.74,1.74,0,0,1,.46.12,7.74,7.74,0,0,1,.65.48c-2.54,4.19-5.05,8.35-7.59,12.48-.21.34-.69.51-1,.76-.06-.47-.34-1.06-.15-1.38,2.46-4.15,5-8.26,7.51-12.38C540.84,83.55,540.9,83.54,541,83.5Z" transform="translate(-135.11 -31.52)"/><path d="M629.48,156.62l1.1,1.75c-.25.16-.49.34-.75.5-3.13,1.93-6.26,3.88-9.41,5.77a3.61,3.61,0,0,1-1.38.22c.19-.47.25-1.12.6-1.38,1.63-1.21,3.34-2.32,5-3.47Z" transform="translate(-135.11 -31.52)"/><path d="M611.62,154.73c.14-.56.1-1.37.46-1.64,3.16-2.38,6.39-4.67,9.6-7a2.45,2.45,0,0,1,.47-.16l.9,1.27-10.84,7.85Z" transform="translate(-135.11 -31.52)"/><path d="M552.73,80.65c1.73.71,1.69.72.79,2.14-1.94,3-3.82,6.13-5.72,9.2-.14.22-.25.52-.46.62a5.22,5.22,0,0,1-1.13.3c0-.36-.19-.8-.05-1.06.69-1.25,1.49-2.44,2.21-3.68,1.33-2.3,2.63-4.61,3.94-6.91C552.44,81.05,552.6,80.85,552.73,80.65Z" transform="translate(-135.11 -31.52)"/><path d="M356.82,68.34c-1.81-6.22-3.63-12.44-5.38-18.68a5.78,5.78,0,0,1,.17-1.95,10.93,10.93,0,0,1,1,1.77c.4,1.22.66,2.48,1,3.72,1.13,4.18,2.29,8.35,3.39,12.54a15.4,15.4,0,0,1,.24,2.55Z" transform="translate(-135.11 -31.52)"/><path d="M222.94,159.24a6,6,0,0,1-1.3-.52c-2.09-1.48-4.14-3-6.23-4.51q-4.6-3.28-9.25-6.54c-.55-.38-1-.72-.2-1.41l17.31,12.35Z" transform="translate(-135.11 -31.52)"/><path d="M549,78.13l1.9,1.12c-.93,1.35-1.82,2.58-2.63,3.85-1.36,2.12-2.62,4.29-4,6.38a6.73,6.73,0,0,1-1.59,1.27,5.31,5.31,0,0,1,.26-2c1.38-2.45,2.9-4.81,4.33-7.23C547.83,80.49,548.32,79.38,549,78.13Z" transform="translate(-135.11 -31.52)"/><path d="M616.7,138.82c1.1,1.26.83,1.93-.64,3-2,1.46-3.94,3.06-5.91,4.61a24,24,0,0,1-2,1.61c-.29.19-.78.06-1.18.07,0-.43-.07-1,.16-1.27a16.06,16.06,0,0,1,1.78-1.48l7-5.87C616.08,139.25,616.37,139.06,616.7,138.82Z" transform="translate(-135.11 -31.52)"/><path d="M209.43,170.54A7.36,7.36,0,0,1,208,170q-5.34-3.35-10.66-6.74a5.39,5.39,0,0,1-1.31-1.06c-.19-.22-.1-.67-.13-1,.31,0,.69-.1.92,0,1.5.95,3,2,4.46,2.92,2.35,1.48,4.73,2.91,7.08,4.38C209,169,209.89,169.27,209.43,170.54Z" transform="translate(-135.11 -31.52)"/><path d="M482.35,49.39c-1.45,4.65-2.13,9.47-4.09,13.88l-.62-.1a14.84,14.84,0,0,1,.16-2.42c.9-3.74,1.86-7.47,2.81-11.2C480.8,48.78,481,48.76,482.35,49.39Z" transform="translate(-135.11 -31.52)"/><path d="M235.85,112.83c1,.93,2,1.83,3,2.8,2.44,2.48,4.84,5,7.27,7.5,1.18,1.21,2.42,2.38,3.59,3.62.2.21.17.64.26,1-.37,0-.86,0-1.07-.18-2.22-2.2-4.39-4.44-6.57-6.67-2-2-4-4.09-6-6.17a8.82,8.82,0,0,1-.94-1.5Z" transform="translate(-135.11 -31.52)"/><path d="M603.93,143.89l10-8.47c1.48,1.32,1.39,1.51,0,2.46-1.78,1.23-3.44,2.64-5.15,4-1,.8-2,1.66-3.09,2.38a4,4,0,0,1-1.5.28Z" transform="translate(-135.11 -31.52)"/><path d="M211.45,167a5.13,5.13,0,0,1-1.48-.4c-3.66-2.33-7.3-4.71-10.95-7.07a2.11,2.11,0,0,1-.63-.45,7.8,7.8,0,0,1-.48-1.06,3.72,3.72,0,0,1,1.25,0,8.24,8.24,0,0,1,1.56.93c3.36,2.24,6.71,4.47,10.05,6.72a7.75,7.75,0,0,1,.91.81Z" transform="translate(-135.11 -31.52)"/><path d="M574.39,96l1.38,1.08c-.63.83-1.2,1.61-1.79,2.39-1.27,1.67-2.51,3.37-3.85,5a17.72,17.72,0,0,1-2.36,2.22c-.25.21-.67.2-1,.29.05-.35,0-.79.19-1,1.19-1.64,2.45-3.25,3.67-4.88S573.07,97.78,574.39,96Z" transform="translate(-135.11 -31.52)"/><path d="M641.27,176.76c-3.57,1.93-7,3.83-10.52,5.65-.38.19-1-.06-1.48-.11.24-.37.39-.87.73-1.08,3.19-1.92,6.41-3.83,9.65-5.67C641,174.81,640.79,176.18,641.27,176.76Z" transform="translate(-135.11 -31.52)"/><path d="M203.5,181.23c-.61.12-1,.33-1.23.22-1.2-.58-2.37-1.22-3.54-1.87l-8.39-4.73a5.74,5.74,0,0,1-1.18-.81c-.2-.2-.21-.58-.31-.88.3,0,.68-.23.89-.12,1.59.88,3.14,1.84,4.73,2.72s3.36,1.79,5,2.69c1,.53,2,1.07,2.93,1.66A7.5,7.5,0,0,1,203.5,181.23Z" transform="translate(-135.11 -31.52)"/><path d="M578.88,99.76l-5.16,6.15c-.84,1-1.62,2-2.5,3-.26.29-.76.36-1.15.53,0-.44-.18-1,0-1.31,1.31-1.55,2-3.52,3.78-4.78,1.15-.8,1.81-2.31,2.65-3.52C577.5,98.44,577.57,98.42,578.88,99.76Z" transform="translate(-135.11 -31.52)"/><path d="M599.51,118.84l1.27,1.37c-1.22,1.13-2.37,2.17-3.49,3.24-1.82,1.73-3.6,3.5-5.45,5.2-.26.24-.77.2-1.17.29.09-.42,0-1,.29-1.22,1.8-1.9,3.67-3.72,5.49-5.59C597.45,121.1,598.4,120,599.51,118.84Z" transform="translate(-135.11 -31.52)"/><path d="M537.47,71.44l1.44.78c-.94,1.79-1.82,3.51-2.74,5.21-1.09,2-2.18,4-3.36,6-.28.47-.89.75-1.35,1.12a5.2,5.2,0,0,1,.19-1.75c1.71-3.45,3.49-6.87,5.25-10.3Z" transform="translate(-135.11 -31.52)"/><path d="M666.32,247.55l-13.51,2.23c-.29-1.48.7-1.35,1.25-1.47,2.41-.54,4.85-.94,7.25-1.5a18.15,18.15,0,0,0,3.26-1.18c.81-.35,1.33-.37,1.49.65C666.11,246.62,666.2,247,666.32,247.55Z" transform="translate(-135.11 -31.52)"/><path d="M653.15,202.93c1,1.4,1,1.52-.46,2.07q-5.07,2-10.2,3.83a3.71,3.71,0,0,1-1.4-.05c.34-.44.58-1.1,1-1.29,2.87-1.23,5.79-2.36,8.68-3.53C651.6,203.64,652.38,203.27,653.15,202.93Z" transform="translate(-135.11 -31.52)"/><path d="M659.89,222.39c-2.08.55-4.19,1.07-6.27,1.67-1.46.42-2.88,1-4.32,1.43a2.75,2.75,0,0,1-1,.2,12.17,12.17,0,0,1-1.57-.33,5.81,5.81,0,0,1,1.31-1c3.32-1.17,6.65-2.28,10-3.42C659.62,220.44,659.79,220.56,659.89,222.39Z" transform="translate(-135.11 -31.52)"/><path d="M578.32,117.22a8.22,8.22,0,0,1,1-2.15c1.59-1.8,3.33-3.48,5-5.24.89-1,1.68-2,2.67-3.17.39.47,1.07.94,1.06,1.4s-.71.88-1.12,1.32c-.83.88-1.69,1.72-2.5,2.63-1.33,1.49-2.6,3-4,4.5a6.55,6.55,0,0,1-1.63,1Z" transform="translate(-135.11 -31.52)"/><path d="M556.67,83.1c1.51.91,1.54,1.26.64,2.51-1.82,2.52-3.57,5.1-5.35,7.66A13,13,0,0,1,550.73,95c-.2.22-.68.17-1,.24,0-.31-.16-.7,0-.93.76-1.3,1.6-2.57,2.4-3.85Z" transform="translate(-135.11 -31.52)"/><path d="M638.35,171.39l.85,1.33c-.42.28-.73.51-1.05.69-3.15,1.73-6.29,3.48-9.47,5.15-.37.19-1-.05-1.48-.08.27-.38.46-.89.83-1.11C631.38,175.39,634.77,173.45,638.35,171.39Z" transform="translate(-135.11 -31.52)"/><path d="M205.16,177.56c-.43,0-.93.15-1.26,0-1.31-.68-2.57-1.46-3.84-2.21l-8.19-4.77c-.15-.09-.34-.16-.42-.3a9.45,9.45,0,0,1-.42-1,2.81,2.81,0,0,1,1,.08c1.65.9,3.26,1.85,4.89,2.77l7.63,4.27a8.24,8.24,0,0,0,1,.4Z" transform="translate(-135.11 -31.52)"/><path d="M397.69,61.33a6.27,6.27,0,0,1-.59-1.59c-.31-4-.55-8-.85-12-.17-2.12-.45-4.23-.62-6.35,0-.28.27-.59.42-.89.26.27.72.53.74.82.26,3.42.42,6.85.65,10.28.16,2.41.39,4.82.56,7.23.05.79,0,1.58,0,2.38Z" transform="translate(-135.11 -31.52)"/><path d="M211.11,139.28c.54.34.84.5,1.11.7L223,148.36c.2.16.49.27.61.47s.24.71.13.8a1.06,1.06,0,0,1-.89.22,6.09,6.09,0,0,1-1.29-.87l-9.85-7.68a3.15,3.15,0,0,1-.93-.88C210.7,140.2,211,139.79,211.11,139.28Z" transform="translate(-135.11 -31.52)"/><path d="M599.45,138.41c-.28-.24-.63-.43-.61-.54a2.11,2.11,0,0,1,.46-1.1c1.79-1.64,3.65-3.21,5.44-4.85,1-.91,1.83-2,2.81-2.89a1.12,1.12,0,0,1,1.08-.08,1.24,1.24,0,0,1,.48,1.05,3.69,3.69,0,0,1-1.06,1.28c-2.29,2-4.61,3.9-6.92,5.85C600.6,137.56,600,138,599.45,138.41Z" transform="translate(-135.11 -31.52)"/><path d="M281.63,102.27c-.77-1.08-1.56-2.15-2.32-3.24-2.42-3.5-4.83-7-7.25-10.52-.62-.89-1.29-1.75-1.87-2.66-.16-.26-.07-.68-.1-1,.33.15.78.2,1,.45,1,1.34,1.83,2.75,2.76,4.11,2.06,3.05,4.14,6.09,6.21,9.13.61.9,1.25,1.77,1.84,2.68a3,3,0,0,1,.23.88Z" transform="translate(-135.11 -31.52)"/><path d="M665,241.55c.11.54.26,1.25.45,2.19-1.25.14-2.42.22-3.56.43-2.78.52-5.54,1.1-8.3,1.65a3.34,3.34,0,0,1-1,.12,3.55,3.55,0,0,1-.88-.38c.24-.25.44-.65.72-.72,2.66-.64,5.34-1.18,8-1.85C661.92,242.62,663.36,242.07,665,241.55Z" transform="translate(-135.11 -31.52)"/><path d="M359.49,62.76c-.44-1.24-.86-2.25-1.16-3.3-.74-2.53-1.46-5.06-2.11-7.61a39.47,39.47,0,0,1-.8-4.34c0-.26.35-.59.54-.89.27.18.69.3.77.53.4,1.22.76,2.45,1,3.7.68,2.95,1.3,5.91,2,8.87C359.92,60.65,360.42,61.58,359.49,62.76Z" transform="translate(-135.11 -31.52)"/><path d="M307.94,80.89c-.53-.89-1-1.61-1.39-2.38C304.78,75,303,71.42,301.3,67.85c-.19-.4-.22-1.22,0-1.41.79-.62,1,.21,1.26.72,1.72,3.74,3.45,7.48,5.13,11.25C308,79.08,308.86,79.71,307.94,80.89Z" transform="translate(-135.11 -31.52)"/><path d="M448.57,57.31c.47-4,.88-7.61,1.31-11.23.11-.95.21-1.9.41-2.83,0-.27.46-.45.71-.67.17.31.52.64.5.94-.2,2.53-.4,5.06-.74,7.57-.27,2-.71,4.07-1.12,6.1-.05.26-.42.45-.65.67C448.78,57.58,448.57,57.3,448.57,57.31Z" transform="translate(-135.11 -31.52)"/><path d="M351.27,64.62a3.34,3.34,0,0,1-.58-.86c-.95-3.21-1.85-6.44-2.79-9.66-.33-1.16-.73-2.31-1.07-3.48a1.92,1.92,0,0,1-.13-1,3.09,3.09,0,0,1,.6-.87c.27.22.71.4.79.68.4,1.37.69,2.77,1.05,4.16.76,3,1.55,6,2.31,9a16.67,16.67,0,0,1,.26,1.88Z" transform="translate(-135.11 -31.52)"/><path d="M593.19,112.48l1.59,1.56c-1.76,1.59-3.43,3.12-5.13,4.62s-2.64,3.6-4.86,4.32l-.4-.3a5.94,5.94,0,0,1,.7-1.35c1.75-1.88,3.56-3.69,5.31-5.57C591.34,114.75,592.19,113.66,593.19,112.48Z" transform="translate(-135.11 -31.52)"/><path d="M590.28,110c1.56.92,1.55,1.07.45,2.19-2.39,2.46-4.74,5-7.1,7.43-.21.22-.42.52-.68.59a3.76,3.76,0,0,1-1.1-.06c0-.34,0-.77.19-1,.5-.65,1.11-1.22,1.67-1.83,1.82-2,3.63-4.08,5.45-6.11C589.53,110.76,589.92,110.36,590.28,110Z" transform="translate(-135.11 -31.52)"/><path d="M489.54,66.42a10.71,10.71,0,0,1,.18-2c1.09-3.93,2.24-7.84,3.43-12l1.64.47c-1.56,4.65-3.06,9.14-4.57,13.63Z" transform="translate(-135.11 -31.52)"/><path d="M657.15,213.59a3,3,0,0,1-.67.44c-3.65,1.23-7.3,2.45-11,3.63-.32.11-.75-.14-1.13-.22.2-.38.32-1,.63-1.1,3.6-1.4,7.23-2.74,10.86-4.07C656.64,212,657.22,212.53,657.15,213.59Z" transform="translate(-135.11 -31.52)"/><path d="M642.56,179.41c1.1,1.59,1,1.53-.51,2.19-2.45,1.06-4.83,2.31-7.23,3.49a19.76,19.76,0,0,1-2.21,1.1,4.18,4.18,0,0,1-1.53,0c.31-.41.53-1,.94-1.22,1.12-.67,2.33-1.18,3.49-1.78C637.85,181.92,640.18,180.67,642.56,179.41Z" transform="translate(-135.11 -31.52)"/><path d="M670.58,281.19c.26.73.58,1.44-.71,1.48l-11.74.39c-.7,0-1.38,0-1.14-1.1Z" transform="translate(-135.11 -31.52)"/><path d="M606.88,126.92c-3.19,2.68-6.21,5.24-9.26,7.75-.29.23-.81.17-1.23.25.14-.42.15-1,.43-1.24,2-2,4.15-3.84,6.24-5.73.84-.76,1.69-1.49,2.64-2.33Z" transform="translate(-135.11 -31.52)"/><path d="M664.48,238.8c-3.9.94-7.68,1.89-11.49,2.73a6.27,6.27,0,0,1-2.11-.26,8.79,8.79,0,0,1,1.68-.9c3.34-1,6.7-1.89,10-2.86a8.72,8.72,0,0,0,1.36-.69C664.15,237.57,664.35,238.3,664.48,238.8Z" transform="translate(-135.11 -31.52)"/><path d="M533.36,69.37c1.65.57,1.69.61.95,2-1.8,3.41-3.62,6.83-5.46,10.22-.15.28-.58.4-.88.6-.06-.38-.3-.84-.16-1.12,1.67-3.53,3.39-7,5.09-10.55C533.07,70.18,533.19,69.81,533.36,69.37Z" transform="translate(-135.11 -31.52)"/><path d="M392.8,56.46c-.25-1.31-.56-2.61-.72-3.92-.25-2-.37-4.07-.59-6.1-.15-1.43-.41-2.84-.51-4.27,0-.43.28-1.21.57-1.28.94-.23.68.66.75,1.13.4,2.65.84,5.3,1.11,8a51.87,51.87,0,0,1,.12,5.44c0,.34-.29.69-.44,1Z" transform="translate(-135.11 -31.52)"/><path d="M490.3,51.57c-1,3.4-2,6.75-3,10.09a24.54,24.54,0,0,1-1,2.91c-.13.32-.55.5-.84.75-.07-.35-.27-.74-.19-1q1.61-6,3.28-11.89C488.77,51.6,489,50.81,490.3,51.57Z" transform="translate(-135.11 -31.52)"/><path d="M456.78,58.85c.23-1.66.46-3.32.7-5,.29-2,.62-4,.89-6.06.17-1.27.26-2.55.39-3.92l1.87.18c-1.13,5-2,10-3.17,14.91Z" transform="translate(-135.11 -31.52)"/><path d="M660.74,224.53l.41,1.46c-4,1.19-7.85,2.35-11.71,3.49a1.12,1.12,0,0,1-.65,0,8.14,8.14,0,0,1-1.06-.54c.28-.24.51-.6.83-.71,1.73-.57,3.47-1.1,5.22-1.63Z" transform="translate(-135.11 -31.52)"/><path d="M214.19,162.79c-1.24.89-1.83.07-2.45-.33q-3.65-2.37-7.23-4.83c-1.29-.88-2.54-1.82-3.77-2.79-.2-.16-.16-.63-.23-1,.33,0,.77-.24,1-.09,3.89,2.7,7.75,5.44,11.61,8.17Z" transform="translate(-135.11 -31.52)"/><path d="M364.71,44.74a4.64,4.64,0,0,1,.81,1.17,32.27,32.27,0,0,1,.91,3.64c.55,3,1.06,6,1.56,8.94.12.7.14,1.42.25,2.5-1.34-.92-1.3-2.08-1.52-3-.87-3.76-1.65-7.53-2.42-11.3a9.29,9.29,0,0,1,0-1.75Z" transform="translate(-135.11 -31.52)"/><path d="M650,194.93l.69,1.58-6.67,2.78-3.82,1.64a2.05,2.05,0,0,1-.86.27,4.21,4.21,0,0,1-1-.34c.21-.29.35-.71.63-.85,1.76-.84,3.56-1.61,5.34-2.43Z" transform="translate(-135.11 -31.52)"/><path d="M497.7,54c1.58.42,1.57.6,1,2-1.23,3.17-2.32,6.4-3.5,9.59-.33.88-.77,1.72-1.15,2.57l-.59-.17a7.41,7.41,0,0,1,.17-1.5C495,62.28,496.34,58.17,497.7,54Z" transform="translate(-135.11 -31.52)"/><path d="M649.94,236.8a9.93,9.93,0,0,1,1.33-.61c2.9-.76,5.82-1.46,8.71-2.24a31.08,31.08,0,0,0,2.94-1.13c.19.64.39,1.27.63,2.06-4.69.24-8.91,2.34-13.46,2.6Z" transform="translate(-135.11 -31.52)"/><path d="M478.51,48.4c-.41,1.45-.82,2.85-1.22,4.26q-1.11,3.93-2.23,7.88a4.06,4.06,0,0,1-.3,1c-.13.23-.43.36-.65.53-.12-.24-.37-.49-.35-.72a15.65,15.65,0,0,1,.39-2c.79-3.41,1.65-6.82,2.37-10.26C476.79,47.8,477.31,47.67,478.51,48.4Z" transform="translate(-135.11 -31.52)"/><path d="M384.32,58a13.32,13.32,0,0,1-.67-2.15q-.91-6.37-1.71-12.78c0-.37.28-.79.43-1.19a4.61,4.61,0,0,1,.89,1.39c.29,1.39.46,2.81.62,4.22.35,3.1.67,6.21,1,9.31a6.77,6.77,0,0,1-.09,1.09Z" transform="translate(-135.11 -31.52)"/><path d="M269,105.19c-.06.09-.17.35-.24.34a1.56,1.56,0,0,1-.92-.25c-.87-1-1.71-2-2.51-3-1.59-2.06-3.13-4.16-4.71-6.23-.57-.76-1.22-1.46-1.74-2.25-.15-.22,0-.66.07-1,.29.12.68.16.86.38,2.54,3.12,5.08,6.25,7.57,9.41A28.77,28.77,0,0,1,269,105.19Z" transform="translate(-135.11 -31.52)"/><path d="M193.89,200.15c-.37,0-.79.17-1.09,0-2.22-1-4.41-2.06-6.61-3.11s-4.31-2-6.45-3.11c-.26-.13-.39-.54-.59-.82a2.61,2.61,0,0,1,1,0q6.26,2.73,12.5,5.55a7.51,7.51,0,0,1,1.3,1Z" transform="translate(-135.11 -31.52)"/><path d="M293.85,87.91c-.14.21-.3.6-.4.58a1.29,1.29,0,0,1-.83-.41c-.88-1.35-1.7-2.73-2.53-4.1-1.47-2.41-2.93-4.83-4.39-7.24-.09-.14-.25-.3-.25-.45,0-.48.05-1,.08-1.43.41.23,1,.37,1.19.72,1.83,3.15,3.58,6.34,5.38,9.51.41.72.88,1.4,1.32,2.1C293.56,87.41,293.69,87.63,293.85,87.91Z" transform="translate(-135.11 -31.52)"/><path d="M513.45,60c1.6.55,1.53.55.94,1.89-1.16,2.62-2.19,5.3-3.33,7.93a16.56,16.56,0,0,1-2.2,3.65c-.09-.35-.34-.76-.23-1C510.2,68.29,511.81,64.18,513.45,60Z" transform="translate(-135.11 -31.52)"/><path d="M323.06,74.41a9.63,9.63,0,0,1-.93-1.48c-1.24-2.87-2.44-5.75-3.64-8.64-.58-1.37-1.18-2.74-1.69-4.14-.12-.32.07-.76.12-1.14.32.21.81.36.93.65q2.72,6.69,5.34,13.42a6,6,0,0,1,.18,1.21Z" transform="translate(-135.11 -31.52)"/><path d="M338.61,51c.13.33.28.65.38,1,1.5,4.83,3,9.67,4.48,14.51,0,.15-.23.4-.58.64a147.32,147.32,0,0,1-5.11-15.56Z" transform="translate(-135.11 -31.52)"/><path d="M658,216.24c.64,1,.72,1.67-.59,2q-2.61.75-5.19,1.61c-1.44.47-2.87,1-4.3,1.54-.24.09-.49.3-.71.28a10.88,10.88,0,0,1-1.49-.39c.34-.34.62-.84,1-1,3.56-1.37,7.15-2.68,10.73-4A2.85,2.85,0,0,1,658,216.24Z" transform="translate(-135.11 -31.52)"/><path d="M497,69.09l4.48-13.83,1.66.54c-1.78,4.47-3.51,8.82-5.27,13.16C497.82,69.05,497.48,69,497,69.09Z" transform="translate(-135.11 -31.52)"/><path d="M602.55,122.06l1.22,1.38c-3.08,2.79-6.08,5.51-9.11,8.19-.23.2-.66.16-1,.23.06-.38,0-.9.2-1.12,1.86-1.89,3.78-3.71,5.66-5.57C600.5,124.2,601.45,123.19,602.55,122.06Z" transform="translate(-135.11 -31.52)"/><path d="M401.54,55.75c-.18-.33-.49-.66-.52-1-.37-4.46-.73-8.91-1-13.37,0-.38.36-.78.56-1.18.24.37.67.73.69,1.11.28,4.42.5,8.84.72,13.26a8.88,8.88,0,0,1,0,1Z" transform="translate(-135.11 -31.52)"/><path d="M187.13,177.27l1.78.89c3.68,1.83,7.38,3.64,11,5.52.54.27,1.37,1.14,1.29,1.27-.54.91-1.21.17-1.76-.11q-5.91-3-11.77-6.11c-.38-.2-.64-.64-1-1Z" transform="translate(-135.11 -31.52)"/><path d="M185.15,181.21a6.84,6.84,0,0,1,1.22.33c3.73,1.84,7.47,3.67,11.17,5.57a7.45,7.45,0,0,1,1.55,1.48,7.6,7.6,0,0,1-1.94-.41c-3.59-1.75-7.16-3.56-10.71-5.38a11.42,11.42,0,0,1-1.52-1.09Z" transform="translate(-135.11 -31.52)"/><path d="M274.48,81.87a10.54,10.54,0,0,1,.85,1c2.33,3.57,4.65,7.14,6.93,10.73a7.3,7.3,0,0,1,.56,1.71,6.23,6.23,0,0,1-1.48-1.11c-2.4-3.47-4.75-7-7.08-10.48a3.56,3.56,0,0,1-.36-1.44C273.89,82.19,274.21,82.06,274.48,81.87Z" transform="translate(-135.11 -31.52)"/><path d="M653.64,257.21l13.93-2.45c.06.41.15.9.26,1.57-1,.11-2,.17-2.91.32-2.91.45-5.82,1-8.74,1.41A2.1,2.1,0,0,1,653.64,257.21Z" transform="translate(-135.11 -31.52)"/><path d="M371.88,59.91c-.61-2.71-1.23-5.41-1.84-8.12q-.65-2.85-1.28-5.72a4.68,4.68,0,0,1-.14-1.29,2.73,2.73,0,0,1,.38-.84c.28.2.75.36.81.62.27,1.08.4,2.2.62,3.3.44,2.25.93,4.49,1.33,6.75.3,1.72.48,3.47.71,5.2Z" transform="translate(-135.11 -31.52)"/><path d="M313.22,60.94c1.16.42,6.85,13.5,6.52,15C318.55,75.31,312.89,62.28,313.22,60.94Z" transform="translate(-135.11 -31.52)"/><path d="M226.1,146.57a10.4,10.4,0,0,1-1.57-.88q-5-4-10-8.14a2.69,2.69,0,0,1-.75-.71,2.34,2.34,0,0,1,0-.92c.26.06.59,0,.78.17,1.59,1.28,3.13,2.61,4.72,3.89,2.12,1.7,4.29,3.35,6.4,5.06a4.88,4.88,0,0,1,.78,1.09Z" transform="translate(-135.11 -31.52)"/><path d="M228.85,119.12c1.36,1.24,2.67,2.4,4,3.61,2.3,2.17,4.58,4.36,6.87,6.55a1.7,1.7,0,0,1,.48.6,2.49,2.49,0,0,1,0,.82c-.27,0-.62,0-.81-.11a22.88,22.88,0,0,1-2-1.7q-4.12-4-8.22-8C228.75,120.45,228.11,120,228.85,119.12Z" transform="translate(-135.11 -31.52)"/><path d="M452.87,58c.7-4.88,1.39-9.76,2.09-14.67,1-.1,1.51,0,1.22,1.23-.5,2.28-.77,4.61-1.14,6.92-.3,1.86-.56,3.72-.91,5.57a4.33,4.33,0,0,1-.75,1.23Z" transform="translate(-135.11 -31.52)"/><path d="M184.43,223.4c-1.49.71-14-3.33-15.45-4.82a6.42,6.42,0,0,1,1.74,0c2.5.82,5,1.74,7.48,2.57,1.56.51,3.17.88,4.73,1.39A8.22,8.22,0,0,1,184.43,223.4Z" transform="translate(-135.11 -31.52)"/><path d="M195.58,196c-1.42.46-14.26-5.57-14.47-6.81C182.37,189,195.09,194.94,195.58,196Z" transform="translate(-135.11 -31.52)"/><path d="M192.16,204.11c-.47,0-1,.22-1.39,0-4.13-1.81-8.24-3.67-12.34-5.55-.31-.14-.5-.55-.74-.84.39,0,.85-.2,1.17-.07,4.06,1.67,8.1,3.38,12.13,5.1a7.18,7.18,0,0,1,1.23.86Z" transform="translate(-135.11 -31.52)"/><path d="M510.72,59c-1.68,4.09-3.31,8.1-5,12.1-.14.35-.58.57-.87.85a3.56,3.56,0,0,1-.06-1.29c1.36-3.89,2.76-7.77,4.16-11.65C509.25,58.18,509.45,58.18,510.72,59Z" transform="translate(-135.11 -31.52)"/><path d="M216.07,159.36c-.41,0-.9.14-1.2,0-.94-.55-1.81-1.2-2.69-1.83-2.89-2.06-5.77-4.1-8.64-6.19-.27-.19-.36-.64-.54-1,.37,0,.83-.07,1.09.11,3.81,2.57,7.6,5.19,11.4,7.77a4,4,0,0,0,1,.38Z" transform="translate(-135.11 -31.52)"/><path d="M670.72,285.34c.51,1.59.36,1.78-1.19,1.8-3.59,0-7.19.12-10.78.13a10.46,10.46,0,0,1-1.89-.35l0-.44Z" transform="translate(-135.11 -31.52)"/><path d="M512.82,74.86a8.65,8.65,0,0,1,.31-1.93c1.27-3.11,2.6-6.18,3.9-9.27a5.37,5.37,0,0,0,.3-.85c.15-.62.31-1.07,1.15-.77s.67.85.39,1.43c-.88,1.84-1.79,3.66-2.65,5.51-.79,1.69-1.52,3.42-2.29,5.12a6.71,6.71,0,0,1-.6.9Z" transform="translate(-135.11 -31.52)"/><path d="M183.16,227.47c-1.47.65-14.32-3.58-14.83-4.87C169.72,222.32,182.53,226.53,183.16,227.47Z" transform="translate(-135.11 -31.52)"/><path d="M654.53,261.33l13.69-2.25c.56,1.61.41,1.73-1.19,1.87-3.24.29-6.47.73-9.7,1.06-.91.09-1.83,0-2.75,0Z" transform="translate(-135.11 -31.52)"/><path d="M423.3,55.4c-.06-.93-.17-1.87-.16-2.8.05-3.61.14-7.22.22-10.83a2.37,2.37,0,0,1,.12-.89,4.71,4.71,0,0,1,.62-.81c.24.29.69.6.68.88-.11,2.33-.32,4.66-.46,7-.07,1.29-.05,2.59-.12,3.88s-.2,2.42-.3,3.62Z" transform="translate(-135.11 -31.52)"/><path d="M334,52.72c1.28,1,5.92,14.34,5.52,15.62C338.66,67.84,333.73,54.08,334,52.72Z" transform="translate(-135.11 -31.52)"/><path d="M516.28,76.37a8.49,8.49,0,0,1,.35-1.68c1.37-3.33,2.78-6.63,4.18-10a1.47,1.47,0,0,1,.4-.65c.31-.18.81-.43,1-.3a1.15,1.15,0,0,1,.38,1,11,11,0,0,1-.83,1.9c-1.31,2.78-2.6,5.57-3.94,8.33a12,12,0,0,1-1.05,1.54Z" transform="translate(-135.11 -31.52)"/><path d="M639.81,204.76c3.75-2.29,7.93-3.71,11.93-5.69l.55,1.26C650.88,201.48,640.86,205.23,639.81,204.76Z" transform="translate(-135.11 -31.52)"/><path d="M304.26,82.91a5.22,5.22,0,0,1-.77-.87q-3.15-5.78-6.26-11.56A1,1,0,0,1,297,70c0-.51.09-1,.14-1.51a4.51,4.51,0,0,1,1,1q3.1,5.88,6.11,11.79a7.56,7.56,0,0,1,.4,1.43Z" transform="translate(-135.11 -31.52)"/><path d="M636.3,196.83c3.76-2.27,8-3.74,11.82-6.1.28.56.51,1,.84,1.64-4.26,1.6-8.16,3.73-12.36,5.11Z" transform="translate(-135.11 -31.52)"/><path d="M305.65,64.1a5.66,5.66,0,0,1,.62.75c1.37,3.23,2.69,6.47,4.11,9.68.43,1,1.16,1.82,1.63,2.77.18.37,0,.9,0,1.35-.33-.28-.8-.49-1-.85-1-1.92-1.92-3.88-2.87-5.82s-1.83-3.76-2.72-5.65a3.12,3.12,0,0,1-.37-1.22C305.08,64.82,305.39,64.53,305.65,64.1Z" transform="translate(-135.11 -31.52)"/><path d="M275.45,100.13A7.48,7.48,0,0,1,274.12,99c-2.24-3-4.44-6.11-6.66-9.17a17,17,0,0,1-1.16-1.56c-.15-.27,0-.69,0-1,.33.12.79.13,1,.36,1,1.36,1.94,2.78,2.92,4.16,1.13,1.59,2.28,3.16,3.41,4.75.77,1.08,1.52,2.16,2.28,3.24Z" transform="translate(-135.11 -31.52)"/><path d="M190.61,207.22c-1.07.77-13.46-4-15-5.81.54,0,.92-.17,1.2-.06q6.22,2.46,12.41,5A10.52,10.52,0,0,1,190.61,207.22Z" transform="translate(-135.11 -31.52)"/><path d="M570.85,93.21l1.25,1-8,10.57-.54-.28a4.18,4.18,0,0,1,.32-1.51c2.15-3.16,4.36-6.28,6.56-9.41A2.8,2.8,0,0,1,570.85,93.21Z" transform="translate(-135.11 -31.52)"/><path d="M469.74,60.89c.37-4.79,2-9.39,2.43-14.22a8.89,8.89,0,0,1,.89.16c.24.06.47.17.8.29-1.19,4.67-2.36,9.28-3.53,13.9Z" transform="translate(-135.11 -31.52)"/><path d="M326.8,72.68c-1.89-4.89-3.79-9.79-5.71-14.74.59-.47.91-.31,1.19.41,1.51,3.88,3.06,7.74,4.57,11.61.31.8.49,1.64.74,2.46Z" transform="translate(-135.11 -31.52)"/><path d="M523.74,80.29a4.55,4.55,0,0,1,.24-1.24c1.39-2.9,2.82-5.78,4.22-8.67.46-1,.85-2,1.27-2.95,1.62.49,1.6.51.89,1.83-1.79,3.31-3.55,6.64-5.33,9.95-.24.44-.55.84-.83,1.26Z" transform="translate(-135.11 -31.52)"/><path d="M669.43,267.56c.08.58.15,1,.24,1.65-.6.06-1.17.29-1.58.13-1.73-.68-3.33,0-5,.3-2.18.35-4.37.64-6.56.92a1.54,1.54,0,0,1-1-.21,1.07,1.07,0,0,1-.33-.75c0-.09.39-.27.61-.29,3.24-.31,6.48-.55,9.71-.91A37.85,37.85,0,0,0,669.43,267.56Z" transform="translate(-135.11 -31.52)"/><path d="M221.21,153.25c-1.15-.8-2.31-1.59-3.44-2.41-3-2.16-6-4.31-8.93-6.52-.33-.24-.42-.8-.62-1.21.43,0,1,0,1.29.19q5.55,4.09,11,8.29a7.15,7.15,0,0,1,1.06,1.3Z" transform="translate(-135.11 -31.52)"/><path d="M360.11,45.91c.93.91,1.07,2.21,1.35,3.41q1.28,5.37,2.45,10.77a3.75,3.75,0,0,1-.22,1.28c-.3-.3-.78-.55-.87-.9q-1.5-5.91-2.89-11.86A18.9,18.9,0,0,1,359.7,46Z" transform="translate(-135.11 -31.52)"/><path d="M657.14,266.34a8.57,8.57,0,0,1-1.43.07c-.23,0-.43-.32-.65-.49.19-.2.35-.52.58-.57a15.52,15.52,0,0,1,1.93-.31c3.42-.38,6.83-.74,10.25-1.15.58-.07,1.1-.3,1.27.57s-.46.88-1,.93l-11,.93Z" transform="translate(-135.11 -31.52)"/><path d="M644.48,183.06l.73,1.36-12,5.78c-.64-1.07,0-1.35.6-1.64,2.82-1.45,5.65-2.87,8.47-4.31C643,183.9,643.69,183.5,644.48,183.06Z" transform="translate(-135.11 -31.52)"/><path d="M435.73,56.11l1.23-15,.35-.25c.27.33.77.66.76,1-.05,1.31-.28,2.62-.39,3.94-.23,2.72-.4,5.44-.67,8.16a12.82,12.82,0,0,1-.69,2.35Z" transform="translate(-135.11 -31.52)"/><path d="M657.11,290.71a13.11,13.11,0,0,1,1.95-.36c3.61-.12,7.22-.2,10.83-.3.56,0,1.29-.18,1.16.71,0,.28-.68.68-1,.68-3.88,0-7.75,0-11.62,0a6.69,6.69,0,0,1-1.29-.3Z" transform="translate(-135.11 -31.52)"/><path d="M432.11,55.88a3.31,3.31,0,0,1-.23-.94c.22-4.09.47-8.17.7-12.26a5.1,5.1,0,0,1,0-1.3c.13-.31.55-.52.84-.78.23.27.57.5.66.8a3.05,3.05,0,0,1-.05,1.16c-.27,2.16-.61,4.31-.83,6.47-.18,1.85-.21,3.71-.35,5.57a6,6,0,0,1-.38,1.27Z" transform="translate(-135.11 -31.52)"/><path d="M342.86,50a6.6,6.6,0,0,1,.81,1.4c1.34,4.49,2.64,9,3.93,13.5a1,1,0,0,1-.3.86c-1.94-5.09-3.63-10.23-5.07-15.46Z" transform="translate(-135.11 -31.52)"/><path d="M265,107.71l-5.8-7c-1.11-1.34-2.24-2.67-3.3-4a2.86,2.86,0,0,1-.27-1.14c.39.15.93.17,1.16.45q4.28,5.18,8.46,10.43a2.81,2.81,0,0,1,.31,1.11Z" transform="translate(-135.11 -31.52)"/><path d="M414.14,55.07a3,3,0,0,1-.24-.74c-.21-4.43-.42-8.85-.58-13.28,0-.4.3-1.14.53-1.16,1-.13.6.72.61,1.19.14,3.88.26,7.76.34,11.65a18.7,18.7,0,0,1-.27,2.33Z" transform="translate(-135.11 -31.52)"/><path d="M465.48,60.34a4.81,4.81,0,0,1-.09-1.18c.78-4.22,1.58-8.44,2.43-12.64a1.2,1.2,0,0,1,.87-.7c.7-.06.85.41.7,1-.68,2.9-1.32,5.81-2,8.71-.4,1.61-.92,3.2-1.38,4.79Z" transform="translate(-135.11 -31.52)"/><path d="M656.51,277.64l13.62-1.41c.53,1.5.36,1.7-1.09,1.74-2.52.08-5,.25-7.55.33-1.64.05-3.28,0-4.92,0Z" transform="translate(-135.11 -31.52)"/><path d="M290,90.5c-.11.13-.26.41-.37.4a1.15,1.15,0,0,1-.74-.35c-.67-1-1.31-2-1.9-3-1.62-2.81-3.22-5.65-4.84-8.47-.1-.18-.31-.32-.37-.52a12.7,12.7,0,0,1-.32-1.25c.41.2,1,.31,1.19.64,2.39,4,4.72,8,7.06,12C289.8,90.1,289.87,90.26,290,90.5Z" transform="translate(-135.11 -31.52)"/><path d="M405.47,55.56a8.22,8.22,0,0,1-.54-1.8q-.36-6-.59-11.9a6.12,6.12,0,0,1,.51-1.79,5.86,5.86,0,0,1,.62,1.67c.19,3.65.3,7.29.42,10.94,0,.93,0,1.86,0,2.78Z" transform="translate(-135.11 -31.52)"/><path d="M444.43,56.73c.16-4.92,1.08-9.78,1.43-14.7,1.1-.32,1.42.16,1.28,1.1-.48,3.3-1,6.59-1.47,9.89-.11.82-.07,1.65-.17,2.46a8.66,8.66,0,0,1-.4,1.38Z" transform="translate(-135.11 -31.52)"/><path d="M222.68,125.79a14,14,0,0,1,2,1.28c3.05,2.71,6.06,5.47,9.08,8.21.13.12.31.22.36.37a8.46,8.46,0,0,1,.26,1,3.2,3.2,0,0,1-1-.15,4.17,4.17,0,0,1-.9-.74q-4.69-4.23-9.36-8.49a6.06,6.06,0,0,1-.81-1.06Z" transform="translate(-135.11 -31.52)"/><path d="M278,79.72l5.16,8c.91,1.39,1.87,2.74,2.73,4.15a5.61,5.61,0,0,1,.39,1.5c-.47-.28-1.12-.44-1.39-.85-1-1.4-1.75-2.91-2.66-4.34-1.45-2.28-2.95-4.52-4.39-6.8a5.71,5.71,0,0,1-.43-1.4Z" transform="translate(-135.11 -31.52)"/><path d="M300.7,84.59c-1.15-.71-7.52-13.07-7.24-14C295.05,71.77,301.13,83.56,300.7,84.59Z" transform="translate(-135.11 -31.52)"/><path d="M380.3,58c-.22-.86-.52-1.7-.67-2.57-.53-3-1-6.09-1.52-9.14-.16-1-.37-2-.46-3,0-.29.27-.62.43-.93.27.28.71.53.77.85.25,1.28.37,2.58.56,3.87.44,3,.9,6,1.33,9.05a13.21,13.21,0,0,1,0,1.78Z" transform="translate(-135.11 -31.52)"/><path d="M228.57,143.21c-1.07-.85-2.15-1.69-3.2-2.55-2.75-2.26-5.5-4.52-8.21-6.82-.31-.26-.36-.81-.53-1.22a4,4,0,0,1,1.24.43c2.28,1.87,4.52,3.79,6.78,5.69,1.29,1.09,2.6,2.16,3.87,3.28a2.75,2.75,0,0,1,.47.9Z" transform="translate(-135.11 -31.52)"/><path d="M326.31,55.85q2.78,7.56,5.56,15.11l-.51.24a5.22,5.22,0,0,1-.78-1.07c-1.18-3.13-2.31-6.28-3.46-9.42-.42-1.13-.89-2.25-1.25-3.4a5.19,5.19,0,0,1-.1-1.43Z" transform="translate(-135.11 -31.52)"/><path d="M242.17,106.3c.94,1.1,1.63,2,2.38,2.77,2.31,2.49,4.66,5,6.95,7.47a5.76,5.76,0,0,1,1.07,2C251.06,118.29,242,107.81,242.17,106.3Z" transform="translate(-135.11 -31.52)"/><path d="M242.73,127.48c-1.09-1-2.2-1.91-3.27-2.9-2.23-2.06-4.47-4.1-6.61-6.24a7.86,7.86,0,0,1-1.09-2.12c1.13-.45,1.37.67,1.88,1.16,2.91,2.8,5.76,5.67,8.62,8.54a8,8,0,0,1,.86,1.26Z" transform="translate(-135.11 -31.52)"/><path d="M172.51,209.58,187.22,215l-.12.58a3.55,3.55,0,0,1-1.22,0q-5.44-2-10.85-4.11c-.94-.36-1.83-.84-2.75-1.27Z" transform="translate(-135.11 -31.52)"/><path d="M180.5,236.11c-1.23.58-13.79-2.71-14.83-3.88C166.7,231.81,179.57,235.18,180.5,236.11Z" transform="translate(-135.11 -31.52)"/><path d="M237.65,133.69c-1,.05-11.55-8.78-12.14-9.91-.13-.25,0-.62,0-1A153.71,153.71,0,0,1,237.65,133.69Z" transform="translate(-135.11 -31.52)"/><path d="M249.22,121.29c-3.51-3.75-7.31-7.24-10.41-11.36l.38-.43c.33.23.78.38,1,.69,2.7,4,7,6.63,9.55,10.7Z" transform="translate(-135.11 -31.52)"/><path d="M271.79,103l-9.37-12.62C264,90.43,272.18,101.5,271.79,103Z" transform="translate(-135.11 -31.52)"/><path d="M245.92,103.36c2.13,1.7,9.57,11.31,9.45,12.48l-5.18-6c-1.42-1.64-2.87-3.26-4.24-5a4.47,4.47,0,0,1-.49-1.43Z" transform="translate(-135.11 -31.52)"/><path d="M249.05,100.85c1,.23,10,11,9.91,12C257.57,112.34,249.22,102.27,249.05,100.85Z" transform="translate(-135.11 -31.52)"/><path d="M409.6,55c-.12-1.26-.28-2.52-.34-3.78-.16-3.15-.27-6.3-.4-9.45a3.63,3.63,0,0,1,0-1,3.41,3.41,0,0,1,.51-.88c.17.26.48.5.5.76.09,1.43.13,2.86.16,4.29.06,3,.11,6,.15,9a8.64,8.64,0,0,1-.11,1.13Z" transform="translate(-135.11 -31.52)"/><path d="M388.44,57a2,2,0,0,1-.27-.55q-.66-6.16-1.3-12.32c-.06-.56-.23-1.12-.24-1.67a4.1,4.1,0,0,1,.3-1.1,4,4,0,0,1,.75.91,4.2,4.2,0,0,1,.23,1.28c.3,3.65.61,7.29.89,10.93.06.81,0,1.63,0,2.44Z" transform="translate(-135.11 -31.52)"/><path d="M164.66,236.18c1.4.31,2.8.59,4.18.93,2.9.73,5.8,1.47,8.68,2.28a6.67,6.67,0,0,1,1.57,1,7.1,7.1,0,0,1-1.78,0c-3.94-1-7.87-2.12-11.8-3.2a5.82,5.82,0,0,1-1-.54Z" transform="translate(-135.11 -31.52)"/><path d="M171.23,213.88l14.26,5.31c-1.25.83-13.32-3.59-14.42-4.87Z" transform="translate(-135.11 -31.52)"/><path d="M427.81,55.4c0-1.86,0-3.71,0-5.57s.17-3.9.23-5.85c0-1,0-2,.06-3,0-.3.43-.56.66-.83l.43.24-.87,15Z" transform="translate(-135.11 -31.52)"/><path d="M163.53,240.88l15.09,3.37-.15.66a141.49,141.49,0,0,1-15.08-3.37Z" transform="translate(-135.11 -31.52)"/><path d="M177.32,248.4c-1.27.45-14.13-2.42-15.14-3.67L177.4,248Z" transform="translate(-135.11 -31.52)"/><path d="M172.58,290.77c-1,.66-14.08.35-15.36-.4h15.36Z" transform="translate(-135.11 -31.52)"/><path d="M585.34,105.42c-1.55,1.39-3,2.78-4.58,4.06-.37.3-1,.25-1.92.44,1.08-1.54,1.93-2.75,2.79-4,.2-.28.43-.53.63-.82C583.33,103.58,583.73,103.55,585.34,105.42Z" transform="translate(-135.11 -31.52)"/><path d="M544.87,75.66l1.79,1c-.37.66-.65,1.28-1,1.84-.78,1.14-1.57,2.26-2.42,3.34a4,4,0,0,1-1.07.68c-.07-.39-.33-.87-.19-1.16C542.85,79.51,543.84,77.66,544.87,75.66Z" transform="translate(-135.11 -31.52)"/><path d="M160.63,254.06l14.8,2.61C173.23,257.48,162.1,255.5,160.63,254.06Z" transform="translate(-135.11 -31.52)"/><path d="M538.53,81c-.37-.62-.86-1.11-.76-1.32,1-2.07,2.11-4.11,3.23-6.23l1.62.92c-.75,1.08-1.49,2.07-2.14,3.11S539.31,79.53,538.53,81Z" transform="translate(-135.11 -31.52)"/><path d="M160.09,258.51,175.27,261C174.07,261.82,161.66,259.86,160.09,258.51Z" transform="translate(-135.11 -31.52)"/><path d="M158.69,272,176,273.53l-.06.66-17.28-1.6Z" transform="translate(-135.11 -31.52)"/><path d="M160.77,267.65l13.52,1.5C173.12,270,161.86,268.78,160.77,267.65Z" transform="translate(-135.11 -31.52)"/><path d="M174.52,265.26c-.88.74-13.34-.89-14.69-1.63l0-.35Z" transform="translate(-135.11 -31.52)"/><path d="M172.21,282.13c-4.5,0-8.82,0-13.13,0a5.31,5.31,0,0,1-1.72-.61l.12-.53Z" transform="translate(-135.11 -31.52)"/><path d="M173.21,277.48c-1.35.75-13.54-.09-15.08-1Z" transform="translate(-135.11 -31.52)"/><path d="M172.42,286.21c-1.76.76-13.21.26-14.81-.64Z" transform="translate(-135.11 -31.52)"/><path d="M563.83,95.8c.87.79.71,1.34,0,2.13-1.16,1.3-2.12,2.78-3.28,4.32C560,101,560,101,563.83,95.8Z" transform="translate(-135.11 -31.52)"/><path d="M567.4,90.68c1.19.6,1.6,1.1.51,2.07a22.06,22.06,0,0,0-2.28,2.78l-1.45-.48Z" transform="translate(-135.11 -31.52)"/><path d="M580.15,110.5,576,115c-1-1-.23-1.48.16-2C578.67,109.81,578.68,109.82,580.15,110.5Z" transform="translate(-135.11 -31.52)"/><path d="M135.11,361.28l.66,0" transform="translate(-135.11 -31.52)"/><path d="M534.55,86a12.15,12.15,0,0,1,.58-1.7c.51-1,1.08-2,1.68-2.92a.87.87,0,0,1,.71-.38c.19,0,.5.51.43.65-.74,1.67-1.37,3.42-2.91,4.56Z" transform="translate(-135.11 -31.52)"/></g><g id="Warstwa_21" data-name="Warstwa 21"><path class="cls-1" d="M218.71,449.35l-1.83,1.33-2-1.72,5.51-2.74,1.47,2-4.9,3.37a17.24,17.24,0,0,1-6.46-5.54c-4.88-6.69-3.32-14.72,3.44-19.64s15-3.74,19.73,2.72a15.78,15.78,0,0,1,3.07,7.56l-4.71,3.63-1.47-2,4.3-4.4,1,2.39-2,1.47a9.54,9.54,0,0,0-1.57-7c-3.25-4.48-9.36-5.56-15.82-.85s-7.58,10.48-4.23,15.09A11.32,11.32,0,0,0,218.71,449.35Z" transform="translate(-135.11 -31.52)"/><path class="cls-1" d="M224.93,459.39l-1.67,1.52-3.86-4.26,1.22-1.1,4,3.54Zm8-9.76c3.12-2.84,6.28-5.7,9.33-8.62l2.64,2.91c-3.15,2.69-6.31,5.55-9.5,8.45l-1.15,1c-3.5,3.17-6.65,6-9.7,9l-2.64-2.92c3.15-2.69,6.31-5.55,9.5-8.44Zm6.27,18-5.6,4.69-10.37-11.45,1.52-1.38,9.41,10.39h-2.76l6.26-4Zm-.06-8.68L233,452.13l1.4-1.27,6.22,6.87Zm.21-2,3.64-2.46,1.23,1.36-7.2,6.53-1.23-1.37,3-3.51Zm-.84-17.72,1.22-1.1,3.85,4.25L241.94,444l-.27-.31Zm12.7,11.57-.28,2.74-8.87-9.78,1.52-1.38,9.83,10.85-5.22,5.11-1.54-1.7Z" transform="translate(-135.11 -31.52)"/><path class="cls-1" d="M238.44,475l3.64,2.37.62.54,3.14,3.57-1.08,1.23-7.4-6.48Zm19.63-17.14.46,2.58-17,19.44L240,478.54Zm-1.52.36,1.27,2.41-3.3-3.7,1.08-1.23,4.63,4-2.61,28.82-2.86,3.27-1-.86Zm14.94,11.38L273,471l-18.27,20.88-.2-2.89Zm-3.24-2.84,7.4,6.48-1.08,1.24-3.49-2.24-.61-.54-3.3-3.7Z" transform="translate(-135.11 -31.52)"/><path class="cls-1" d="M272.29,501.5l4.37,3.77-.93,1.35-10.13-7,.93-1.35,5.08,2.75Zm5.23-11.57c2.4-3.48,4.81-7,7.11-10.54l3.24,2.23c-2.45,3.34-4.87,6.85-7.31,10.4l-1.16,1.69c-2.4,3.47-4.82,7-7.11,10.54L269.05,502c2.45-3.34,4.87-6.85,7.31-10.4Zm-.47-13.27,2.68-.64-5.22,5.26-1.89-1.3,4.41-5.82,18.44,12.69-3.87,6.2-1.89-1.3,3.06-6.76.35,2.74Z" transform="translate(-135.11 -31.52)"/><path class="cls-1" d="M290.52,513l4.4,3.07-.77,1.44L284,512l.77-1.45,5,2Zm3.94-12.08c2-3.72,4-7.48,5.92-11.25l3.47,1.86c-2.13,3.7-4,7.24-6.33,11.5l-.58,1.08c-2.2,4.08-4.22,7.83-6.12,11.61l-3.46-1.87c2.07-3.58,4.09-7.34,6.13-11.13Zm1.53,1.05,4.51,2.43c3.9,2.1,6.91,1,8.48-1.91s.91-5.56-2.85-7.59l-4.91-2.64.9-1.66,4.94,2.66c5.53,3,7.51,7.07,5.35,11.08-1.65,3.07-5.56,4.55-10.51,2.4l.27-.23c2.46,1.65,3.41,3.7,2.63,7.47l-1.46,6.94-.75-1.28,3.49,2.43-.78,1.45a9.66,9.66,0,0,1-2.79-1c-2.24-1.21-2.91-2.31-2.44-4.2l1.68-6.69c.86-3.31-.21-4.53-3.2-6.15l-3.43-1.84Zm.29-12.65.78-1.44,5.06,2.72-1.07,2-.36-.19Z" transform="translate(-135.11 -31.52)"/><path class="cls-1" d="M321.89,527.88c4.38,1.75,7.58.15,10.29-6.67l5.63-14.13,1.91.76-6,15.12c-3.18,8-8.25,9.42-13.39,7.38-5.52-2.2-8-6.77-5.21-13.86l1.64-4.11c1.56-3.92,3.14-7.89,4.59-11.85L325,502c-1.65,3.8-3.23,7.76-4.82,11.76l-1.2,3C316.35,523.29,318,526.34,321.89,527.88Zm-4.3-27.08.61-1.53,10.66,4.25-.61,1.52-5.17-1.4-.77-.3Zm19.65,8.49-4-2.25.61-1.52,9.14,3.64-.61,1.53-4.42-1.1Z" transform="translate(-135.11 -31.52)"/><path class="cls-1" d="M338.09,534.88l4.33.41.8.19L347,537l-.39,1.59-8.88-2.15Zm9.66-24.24,1.68.41-2.52,12-3.59,14.82-2-.49Zm-3.58-.86,5.26,1.27-.53,2.19-.48-.12-4.64-1.75Zm3.62.87,3.55.86,4,26.27-1.35-.33,15-21.67,2.11.51-16.86,24.18-1.95-.47Zm12.09,29.5,4.93.56.8.19,5,1.85-.38,1.6-10.76-2.61Zm6.07-9.92,3.48-14.34,3.62.88c-1.09,4-2.09,8.14-3.11,12.32l-.48,2c-1,4.1-2,8.25-2.87,12.38l-3.74-.91C363.94,538.56,364.94,534.42,366,530.23Zm5.19-13.93,5.58,1.35-.39,1.6-5.32-.66-.4-.09Z" transform="translate(-135.11 -31.52)"/><path class="cls-1" d="M392.32,544.41l-.14,2.25-5.73-.38.11-1.63,5.35-.27Zm-4.18-23.9.11-1.64,5.73.38-.15,2.25-.41,0Zm3.16,11.3c.28-4.21.56-8.47.71-12.69l3.93.26c-.4,4.12-.67,8.38-1,12.67l-.1,1.56c-.31,4.7-.59,9-.74,13.18l-3.93-.26c.4-4.12.68-8.38,1-12.67Zm17.06,8.6-.76,7.26-15.42-1,.13-2,14,.92-2,1.93,1.74-7.2Zm-6.08-6.19-9.25-.61.13-1.88,9.24.6Zm3-14.23,1.7,2.17-13.17-.86.14-2,14.6,1-.19,7.3-2.29-.15Zm-4.24,12.67.89-4.3,1.84.12-.63,9.7-1.84-.12-.32-4.58Z" transform="translate(-135.11 -31.52)"/><path class="cls-1" d="M411.9,522l-.07-1.64,5.73-.27.11,2.25-.41,0Zm6.84,23.28.11,2.25-5.74.27L413,546.2l5.29-.86Zm-2.43-12.41c-.19-4.22-.39-8.48-.72-12.69l3.94-.18c.07,4.14.27,8.4.47,12.7l.07,1.55c.22,4.71.42,9,.74,13.19l-3.93.18c-.07-4.14-.27-8.4-.49-13.19Zm2.45,12.78,5.28-.25c6.43-.3,9.75-4.81,9.4-12.27-.36-7.74-4.08-11.71-10.14-11.42l-5.65.26-.09-1.88,6.35-.3c7.78-.36,13.41,4.21,13.83,13.14s-5.42,14-13.36,14.34l-5.53.26Z" transform="translate(-135.11 -31.52)"/><path class="cls-1" d="M439,520.71l-.27-1.62L450,517.17l.27,1.61-5.15,1.5-.81.14Zm17.77,20.89c4.65-.79,6.55-3.82,5.32-11.05l-2.55-15,2-.34,2.73,16c1.44,8.48-2.14,12.34-7.6,13.26-5.86,1-10.38-1.6-11.66-9.12l-.74-4.36c-.71-4.17-1.42-8.37-2.25-12.51l3.88-.66c.57,4.1,1.29,8.3,2,12.55l.54,3.19C449.6,540.56,452.6,542.3,456.72,541.6Zm3.43-23.87-4.54.15-.28-1.62,9.7-1.65.28,1.62L461,517.59Z" transform="translate(-135.11 -31.52)"/><path class="cls-1" d="M466.71,515.81l-.46-1.57,11-3.25.46,1.57-4.93,2.1-.79.23Zm6.87,9.51c-1.2-4.05-2.4-8.14-3.71-12.15l3.65-1.08c1.06,4,2.26,8.1,3.48,12.23l.88,3c.89,3,2.1,7.12,3.41,11.14l-3.65,1.07c-1.06-4-2.26-8.09-3.48-12.22Zm5.7,11.36,5.28-.92.47,1.57-11,3.25-.47-1.57,4.94-2.1Zm-2.64-7.21,8.8-20.89,2.36-.7L477.39,532Zm5-9.74L496.24,534l-3.7,1.09-12.19-12.35Zm-.37-8.22-.46-1.58,9-2.66.46,1.57-4.15,1.87-.73.42Zm6.41,23.32,4.54-2,.59-.17,4.9-.8.46,1.57-10,3Z" transform="translate(-135.11 -31.52)"/><path class="cls-1" d="M500.28,531l3.52-2.18.76-.32,4.39-1.21.64,1.5-8.67,3.72Zm1-28.74,2.26-1L523.08,523l-3.5,1.5-17.26-19.33.87-.37,2,25.87-1.77.76Zm2.21,17.34,10.18-4.36,1.34,1.47-11.38,4.88Zm11.06,5.3,4.51-2.61.75-.32,4.92-1.44.65,1.51-10.18,4.36Z" transform="translate(-135.11 -31.52)"/><path class="cls-1" d="M544.2,506.8l1.11,2-1.94,1.74-2.07-5.8,2.18-1.22,2.76,5.27a17.2,17.2,0,0,1-6.26,5.76c-7.22,4.06-15,1.56-19.11-5.74-4-7.15-1.93-15.36,5-19.27a15.77,15.77,0,0,1,7.87-2.15l3.05,5.1-2.19,1.22-3.86-4.79,2.5-.74,1.22,2.18a9.54,9.54,0,0,0-7.16.73c-4.83,2.7-6.62,8.64-2.71,15.62s9.52,8.76,14.49,6A11.37,11.37,0,0,0,544.2,506.8Z" transform="translate(-135.11 -31.52)"/><path class="cls-1" d="M534.91,487.08l-.95-1.33,9.35-6.65,1,1.34-4,3.58-.67.48Zm18.8,7-17.88-9.67L539.3,482l15.44,8.84-1.17.83L550.46,474l1.71-1.21,3.38,20ZM551.6,476l-4.06,2.14-.95-1.34,7.68-5.46,1,1.34-3,2.87Zm-.24,16,3-2.14c2.71,3.81,5,7,7.22,9.95l-3.2,2.28C556.42,499.1,554.09,495.83,551.36,492Zm7.66,6.88,5-2.83,1,1.34-10,7.12-1-1.33,4.32-3.83Z" transform="translate(-135.11 -31.52)"/><path class="cls-1" d="M555.28,470.14l9.05-7.7,1.07,1.25-3.66,3.92-.63.53-4.77,3.25Zm6.18-5.26c2.59,3.24,5.35,6.49,8.14,9.76l4.23,5a46.28,46.28,0,0,1,5.31,7,7.49,7.49,0,0,1-1.85,9.6c-1.16,1-2.64,1.71-3.93.76a2.18,2.18,0,0,1,.59-3.09,4.79,4.79,0,0,1,3.09-1.07l1.69-.09,0,.56-.22.24-.28-.2c.42-1.91-.16-3.41-1.83-5.38s-4.51-5-18-20.51Z" transform="translate(-135.11 -31.52)"/><path class="cls-1" d="M568.8,460.29l2.48-1.14-3.87,3.11-1.17-1.15,4.28-4.41,28.65,4.09,3.12,3-.91.94Zm-.28-1.53,2.6-.33,18.55,18-1.43,1.47Zm9.42-9.71,6.85-7.07,1.18,1.14-2.41,3.38-.57.58-3.87,3.11Zm3-3.09,1.43-1.48,19.92,19.33-2.9.05Zm3.7,33.29,2.55-3.52.57-.59,3.73-3,1.18,1.15-6.86,7.06Z" transform="translate(-135.11 -31.52)"/><path class="cls-1" d="M587.23,441.42l-1.3-1,3.5-4.55,1.79,1.38-.25.32Zm11.15,3.67c-3.35-2.58-6.73-5.18-10.15-7.66l2.4-3.12c3.21,2.63,6.59,5.23,10,7.85l1.23.95c3.74,2.88,7.12,5.48,10.54,8l-2.4,3.12c-3.21-2.63-6.59-5.23-10-7.85Zm-2-18.22,2.75-.21-8.05,10.46-1.63-1.25,8.93-11.59,6,4.22-1.4,1.82Zm10.13,10.44-5.66,7.34-1.49-1.15,5.65-7.34Zm-2,.14-3.07-3.14,1.12-1.46,7.7,5.93-1.12,1.46-4-2.29Zm4.89,13.8,1.79,1.38-3.5,4.55-1.3-1,2.76-4.6ZM615,435.7l5.61,4.68-9.43,12.25-1.63-1.25,8.56-11.11.5,2.71-5-5.46Z" transform="translate(-135.11 -31.52)"/></g><g id="Warstwa_28" data-name="Warstwa 28"><line class="cls-2" x1="16.17" y1="264.55" x2="542.43" y2="264.55"/><line class="cls-3" x1="16.17" y1="264.55" x2="542.43" y2="264.55"/><line class="cls-3" x1="24.61" y1="329.98" x2="534.01" y2="329.98"/></g><g id="Warstwa_19" data-name="Warstwa 19"><circle class="cls-4" cx="279.31" cy="262.95" r="216.74"/><circle class="cls-5" cx="279.31" cy="263.64" r="216.74"/></g><g id="Warstwa_22" data-name="Warstwa 22"><path class="cls-6" d="M459,203.59H375.4c-1.26,19-1.94,37.65-3.83,56.19-1.34,13.09-5.53,62-16.05,146.38-2.35,18.87-8.54,37-19.8,52.67-9.7,13.49-24.1,17.85-36.46,11.27-13.09-7-18.71-22.47-12.67-38.33a87.9,87.9,0,0,1,12.5-22.17c22-28.37,33.24-61.26,37.92-96.56,4.1-30.89,6.46-62,9.57-93.05.43-4.38.79-8.78,1.06-13.17a10.54,10.54,0,0,0-.56-2.82c-22-2.18-37.28-1.09-51.05,7.66-9.72,6.18-18.68,16.17-28.68,31.51-4.61,7.06-9.11,9.58-17.42,7,1.56-4.62,2.71-9.38,4.72-13.7,7.53-16.15,14.46-32.7,23.25-48.1,13.48-23.6,35.28-34,61-34.15,76.53-.48,153.07-.17,229.6-.15,1.47,0,2.94.3,4.89.51v48.46h-29c-14.14,0-28.29.19-42.43-.09-4.91-.1-7.34,1.25-7.86,6.65-2.62,26.9-5.94,53.73-8.12,80.66-1.64,20.19-2.61,40.5-2.56,60.75a139.62,139.62,0,0,0,4.46,33.84c4.95,19.41,19.62,30.67,37.32,30.56,16.57-.11,30.61-11.64,35.26-31,2-8.45,5.69-9.73,13.6-7.33-2.55,21.87-6.22,43.41-17,63a65.65,65.65,0,0,1-27.61,27c-28.09,14.77-57.44,1-70.72-27.19-8.41-17.88-10.2-37.44-11.16-57C445,330.14,452.32,278,457,225.75,457.65,218.56,458.32,211.38,459,203.59Z" transform="translate(-135.11 -31.52)"/></g><g id="Warstwa_27" data-name="Warstwa 27"><path class="cls-6" d="M665.06,361.37h4.1c.09-.33.2-.78.34-1.32s.63-2.49,1.16-4.76c.92-3.94,1.59-7.25,1.8-8.29.37-1.89.8-4.15,1.25-6.72s1-6,1.49-9.7c.33-2.43.72-5.59,1.08-9.31.22-2.2.49-5.19.72-8.74.09-1.47.24-3.88.36-6.84.08-2.16.13-4,.15-5.13,0-.89,0-1.65,0-2.24l0-2.26H151.29v.76c0,.76,0,1.38,0,1.75s0,.9,0,1.27c0,0,0,.7,0,1.4,0,1.25.07,2.66.1,3.53.17,4.68.5,9.31.5,9.31a65.55,65.55,0,0,0,.63,7.47c.22,2.19.55,5.2,1,8.73,1,7.19,2,13.07,2.8,16.78.64,3.2,1.51,7.25,2.66,11.88.26,1.06.49,1.94.66,2.58h4.75Z" transform="translate(-135.11 -31.52)"/></g><g id="Warstwa_24" data-name="Warstwa 24"><circle class="cls-4" cx="279.31" cy="263.64" r="263.14"/></g><g id="pitagoras_1" data-name="pitagoras 1"><path class="cls-1" d="M234.89,308v-2.76h9.66v3.79h-.69Zm10.35,39.67,9,1v2.76H234.89v-2.76l9-1Zm-3.8-21c0-7.11,0-14.29-.2-21.39h6.62c-.21,7-.21,14.14-.21,21.39v4.21c0,7,0,13.52.21,20.63h-6.62c.2-7,.2-14.15.2-21.39Zm9.94,6.55h-6.83v-3.17h7.86c8.49,0,11.8-4.49,11.8-11s-3.72-10.56-12.07-10.56h-7.59v-3.17h8.9c11.45,0,17.32,5.65,17.32,13.73C270.77,326.73,265.46,333.22,251.38,333.22Z" transform="translate(-135.11 -31.52)"/><path class="cls-1" d="M274.77,308v-2.76h19.32V308l-9,1h-1.38Zm10.35,39.67,9,1v2.76H274.77v-2.76l9-1Zm-3.79-21c0-7.11,0-14.29-.21-21.39h6.62c-.2,7-.2,14.14-.2,21.39v3.45c0,7.1,0,14.28.2,21.39h-6.62c.21-7,.21-14.15.21-21.39Z" transform="translate(-135.11 -31.52)"/><path class="cls-1" d="M301.54,308.73l3.11-3.45-2.21,12.28h-3.86l.55-12.28H336.8l.55,12.28h-3.86l-2.21-12.28,3.11,3.45Zm17.11,39,9.66,1v2.76h-20.7v-2.76l9.66-1Zm-3.79-21c0-7.11,0-14.29-.21-21.39h6.63c-.21,7-.21,14.14-.21,21.39v3.45c0,7.1,0,14.28.21,21.39h-6.63c.21-7,.21-14.15.21-21.39Z" transform="translate(-135.11 -31.52)"/><path class="cls-1" d="M334.25,348.75l6.9-1h1.38l7.59,1v2.76H334.25Zm20.56-43.82H359l15.87,46.58H368.4l-13.87-41.34h1.59l-14.07,41.34H338.8Zm-8.07,28.29h18.63l1.1,3.17H345.63Zm13.59,15.53,8.69-1h1.38l8.56,1v2.76H360.33Z" transform="translate(-135.11 -31.52)"/><path class="cls-1" d="M418.57,348.47a31.63,31.63,0,0,1-15.18,4.07c-13.8,0-23.19-10.28-23.19-24.15s9.46-24.15,23.46-24.15c5.73,0,10,1,13.87,3.31l.28,10H413.6l-1.73-10.21,4.28,1.38v3.93a16.77,16.77,0,0,0-11.94-5c-9.66,0-16.76,7.52-16.76,20.7S393.93,349,404.7,349c3.93,0,6.83-.89,10.76-2.83l-3.1,3.25v-4c0-5.24-.07-10.62-.21-15.87h6.62c-.13,5.18-.2,10.49-.2,15.87ZM405,332.32v-2.76h17.94v2.76l-7.59.69h-1.38Z" transform="translate(-135.11 -31.52)"/><path class="cls-1" d="M470.11,328.39c0,15.11-10.35,24.15-21.05,24.15S428,344.12,428,328.39c0-15.11,10.49-24.15,21.11-24.15S470.11,312.66,470.11,328.39Zm-21.05,20.7c9.73,0,13.8-10.35,13.8-20.7s-4.07-20.7-13.8-20.7-13.87,10.35-13.87,20.7S439.33,349.09,449.06,349.09Z" transform="translate(-135.11 -31.52)"/><path class="cls-1" d="M474.8,308v-2.76h9.66v3.79h-.69Zm10.35,39.67,9,1v2.76H474.8v-2.76l9-1Zm-3.79-21c0-7.11,0-14.29-.21-21.39h6.62c-.2,7.17-.2,13.93-.2,22.08v2.07c0,7.79,0,15,.2,22.08h-6.62c.21-7,.21-14.15.21-21.39Zm3.1.34h8.62c7.46,0,11.05-4,11.05-9.59,0-5.8-3.11-9-10.29-9h-9.38v-3.17h9.45c10.56,0,16.77,4.48,16.77,12.14,0,5.87-4.62,11.18-13.66,11.94l.21-.56c5,.49,8,2.76,9.86,9l3.38,11.46-2.14-1.31,7.11.83v2.76a16,16,0,0,1-5,.69c-4.27,0-6.14-1.11-7-4.28l-2.82-11.25c-1.39-5.59-3.94-6.55-9.66-6.55h-6.56Z" transform="translate(-135.11 -31.52)"/><path class="cls-1" d="M517.51,348.75l6.9-1h1.38l7.59,1v2.76H517.51Zm20.56-43.82h4.14l15.87,46.58h-6.41L537.8,310.17h1.58l-14.07,41.34h-3.25ZM530,333.22h18.63l1.1,3.17H528.9Zm13.59,15.53,8.7-1h1.38l8.55,1v2.76H543.59Z" transform="translate(-135.11 -31.52)"/><path class="cls-1" d="M589.75,340.67c0-4.48-2.69-6.48-8.69-8.83l-2.62-1c-7-2.76-11.87-6.77-11.87-13.8,0-7.94,6.69-12.77,15.46-12.77a18.25,18.25,0,0,1,11.24,3.66l-.41,9h-4.14l-1.93-10.42,4.41,2.28v3.45c-3.38-3.32-5.93-4.49-9.59-4.49-5.38,0-9.45,2.69-9.45,7.87,0,4.34,2.83,6.9,7.86,8.83l2.69,1c9.11,3.52,12.63,7.52,12.63,14,0,8.14-6.83,13.11-16.28,13.11a26.46,26.46,0,0,1-13.39-3.66l.42-9.66h4.14L572,349.85l-4.48-1.93v-3.31c4.27,3.1,6.62,4.48,11.31,4.48C585.41,349.09,589.75,346.05,589.75,340.67Z" transform="translate(-135.11 -31.52)"/></g></svg>